<?xml version="1.0" encoding="utf-8"?>
<!-- Generator: Adobe Illustrator 24.2.0, SVG Export Plug-In . SVG Version: 6.00 Build 0)  -->
<svg version="1.1" id="Layer_1" xmlns="http://www.w3.org/2000/svg" xmlns:xlink="http://www.w3.org/1999/xlink" x="0px" y="0px"
	 viewBox="0 0 864 864" style="enable-background:new 0 0 864 864;" xml:space="preserve">
<style type="text/css">
	.st0{fill:#264580;}
	.st1{fill:#FFFFFF;}
	.st2{fill:none;}
</style>
<g>
	<circle class="st0" cx="-452" cy="432" r="429.5"/>
	<circle class="st1" cx="-452" cy="432" r="416.6"/>
	<g>
		<g>
			<path class="st0" d="M-486.5,34c0.8-0.3,1.1-2.3,2-2.2c0.5,0,0.9,0,1.5,0c1.3,2.6-1.4,6.4-4.5,5.5c-1.1-0.2-2.3-0.5-3.3,0
				c-1,0.5-1.4,1.7-2.5,1.8c-0.8,0.1-1.3,0-2.3,0c0.3-1.7,0.6-3.5,2.2-4.6C-491.3,33.2-488.6,34.7-486.5,34z"/>
			<path class="st0" d="M-483.5,40.7c5.5-0.5,11-1.1,16.5-1.5c-3.8,7.3-8.1,14.4-12,21.7c-0.4,5.6,1,11.4,1.1,17c-5,0.4-10,1-15,1.3
				c-0.6-5.5-0.7-11.1-1.7-16.6c-4.7-6.8-10.7-12.6-15-19.6c5.6-0.4,11.2-1.2,16.8-1.3c1.6,3,3.4,6,5.1,9.1c1.8-3,2.5-6.5,3.8-9.7
				L-483.5,40.7z"/>
			<path class="st0" d="M-429.9,39.9c10.5,0.8,20.9,2.1,31.4,3c-0.3,4.1-0.8,8.1-1,12.2c-2.8-0.2-5.7-0.4-8.5-0.5
				c-0.5,8.3-1.6,16.6-2.3,24.9c-4.9-0.5-9.9-1-14.8-1.4c0.7-8.4,1.7-16.8,2.4-25.2c-2.7-0.2-5.5-0.5-8.2-0.8
				C-430.7,48-430.3,44-429.9,39.9z"/>
			<path class="st0" d="M-533.9,48c5.5-1.3,11-2.6,16.5-3.8c-2.6,7-5.6,13.9-8,20.9c6.1,5,12.1,10.1,17.9,15.3
				c-5.9,1.4-11.8,2.8-17.7,4c-4.3-4.3-8.5-8.7-13.1-12.8c1.3,5,2.5,10,3.5,15.1c-4.7,1-9.5,2-14.1,3.2c-3-12.2-5.7-24.5-8.4-36.8
				c4.7-1.1,9.5-2.1,14.2-3.2c1.5,4.9,1.8,10.1,3.8,14.8C-537.4,59.2-535.7,53.6-533.9,48z"/>
			<path class="st0" d="M-391.3,81.9c2.6-12.3,5.5-24.5,8.5-36.7c4.8,1.2,9.7,2.3,14.5,3.4c-0.9,4.1-1.9,8.1-2.7,12.2
				c2.9,0.7,5.8,1.4,8.7,1.9c0.9-4,1.8-8,2.8-12c4.9,1.1,9.8,2.2,14.6,3.5c-3,12.1-5.6,24.4-8.5,36.5c-4.9-1.2-9.9-2-14.7-3.6
				c1.2-4.2,2.2-8.4,3-12.7c-2.9-0.6-5.7-1.3-8.6-1.9c-1.1,4.3-2,8.6-3.1,12.9C-381.7,84.1-386.5,83-391.3,81.9z"/>
			<path class="st0" d="M-327,59.7c4.8,1.7,9.5,3.4,14.1,5.5c-2.5,5.7-4.5,11.5-6.9,17.2c-0.8,2.2-2,4.5-1.5,6.9
				c1.3,3,6.3,3.4,7.4,0c3.2-6.9,5.6-14.1,8.4-21.2c4.7,1.7,9.4,3.3,13.9,5.5c-1.4,4.7-3.5,9.1-5.2,13.8c-2,4.7-3.3,10.1-7.2,13.7
				c-4.8,4-11.8,4-17.5,2.1c-5.9-1.9-11.6-5.7-14-11.6c-1.6-3.7-0.7-7.9,0.6-11.6C-332.3,73.2-329.5,66.5-327,59.7z"/>
			<path class="st0" d="M-623.7,86.3c2.5-10.1,12.9-16.8,23.1-17.1c1.7,4.2,3.7,8.2,5.5,12.3c-4.5-0.6-9.7-0.3-12.7,3.5
				c-3.4,4.2-0.1,11.6,5.4,11.6c4.7,0,8-3.6,10.6-7.1c0.2,0.1,0.7,0.2,0.9,0.3c1.5,4.1,4.1,8.1,4.6,12.4c-6.5,6.2-16.4,9.6-25.2,6.4
				C-620.7,105.8-626.1,95.4-623.7,86.3z"/>
			<polygon class="st0" points="-264.5,84.9 -257.6,81.6 -252.4,84.4 -252.1,92.3 -255.4,90.5 -256.6,85.5 -261.5,87 			"/>
			<g>
				<path class="st0" d="M-268.1,87.9c0.9-0.6,1.9-1.9,3.1-1c4.6,2.5,9.1,5,13.5,7.7c-2,13.2-3.9,26.4-5.7,39.7
					c-4.9-2.3-9.5-5.2-14.1-7.8c0.4-1.6,0.8-3.2,1.1-4.8c-3.4-1.7-6.5-3.9-10-5.2c-1.1,1-1.8,2.7-3.4,3c-4.6-2.2-8.8-5.2-13.5-7.3
					c1.8-2.3,4.3-3.9,6.5-5.8C-283.1,100.2-275.6,94.1-268.1,87.9z M-264.7,100.5c-2.6,3.3-5.6,6.2-8.6,9.1c1.7,1,3.5,2,5.3,3
					C-267.2,108.5-266.2,104.4-264.7,100.5z"/>
			</g>
			<g>
				<path class="st0" d="M-480.9,94.3c51.9-4.4,104.8,3.1,153.2,22.3c59.7,23.4,112.3,64.3,149.9,116.2c23.3,32,41,68.2,51.8,106.3
					c21.7,75.9,15.9,159.4-16.6,231.4c-26.7,59.8-71.2,111.4-126.3,146.7c-32.5,20.9-68.5,36.2-106.1,44.9
					c-77.6,18.2-161.5,8-232.3-28.8c-62.2-32-114-83.8-146-146c-37.4-71.8-47.3-157.3-28-235.8c17.1-71,58.2-135.8,114.8-181.9
					C-614.1,126.5-548.5,99.9-480.9,94.3z M-521.5,113.1c-39.1,8.5-76.6,24.3-110,46.3c-57,37.5-101.8,93.2-125.8,157.1
					c-29.1,76.5-28.1,164.3,3.7,239.8c84,0.3,168,0,252,0.2c7.9,0.3,16.5,0.3,23.4,4.8c5.4,3.1,9.8,7.6,13.4,12.5
					c6.1,8.2,9.1,18.1,12.2,27.7c0.9-3.4,0.9-6.9,1.6-10.3c2.6-14.4,8.8-28.6,19.6-38.7c4.6-4.2,9.7-8.2,15.9-9.6
					c4.2-1.1,8.6-0.8,13-0.8c85.9,0,171.8,0,257.8,0c22-61.1,25.1-128.8,8.9-191.6c-9.3-36.2-24.9-70.7-45.9-101.6
					c-38.5-56.9-95.3-101.1-159.9-124.2C-399,104.1-462.1,100.2-521.5,113.1z M-423,552c-10.6,7.5-17.9,19.1-21.4,31.5
					c5.1-9,11.1-18.3,20.6-23.2c5.3-2.9,11.3-4.1,17.3-3.8c85.4,0.1,170.8,0,256.1,0c1.4-3.1,2.7-6.3,3.7-9.5
					c-87.3,0.1-174.6,0-261.8,0.1C-413.7,547.1-418.8,549-423,552z M-750.6,562.8c0.8,3.3,2.5,6.2,3.8,9.3
					c83.4,0.1,166.8,0,250.3,0.1c14.1,0,26.7,8.4,34.9,19.4c-3-7.1-7.2-13.8-12.8-19.1c-3.5-3.3-7.4-6.5-12.1-7.8
					c-7.5-2.2-15.3-1.7-23-1.8C-589.8,562.8-670.2,563-750.6,562.8z M-417.9,565c-11.9,4.8-19.7,15.9-24.4,27.4
					c7.7-11.6,20.7-20,34.9-20.2c83.4-0.1,166.9,0.1,250.3-0.1c1.4-3,2.7-6,4.1-9c-4.1-0.4-8.3-0.2-12.5-0.2c-78,0-156,0-234,0
					C-405.7,563-412.1,562.4-417.9,565z M-741.7,581.8c1.3,3.2,3.1,6.2,4.8,9.2c81.1,0.1,162.3,0,243.4,0.1
					c11.3,0.1,21.9,5.7,29.8,13.6c-5.2-13-18.6-22.8-32.8-22.8C-578.2,581.8-660,581.9-741.7,581.8z M-440.4,605.4
					c8-8.5,19.2-14.3,31-14.3c80.8,0,161.6,0,242.4,0c1.7-3,3.5-6.1,4.7-9.3c-81.8,0.1-163.5,0-245.3,0
					C-422,582-434.9,592.3-440.4,605.4z M-729.7,603.2c2.1,3,3.5,6.6,6.2,9.2c17,0.4,34.1,0,51.1,0.2c59.3,0,118.6,0,178,0
					c6,0.1,12.2-0.3,17.9,1.9c3.8,1.3,7,3.7,10.2,6c-5.8-10.3-17.1-17.6-29.1-17.4C-573.6,603.2-651.6,603-729.7,603.2z
					 M-437.4,620.5c5.9-4.8,13.2-8.1,20.9-7.8c78.7,0,157.4-0.1,236.1,0.1c2.2-3.1,4.2-6.3,6.1-9.6c-78.1-0.1-156.2,0-234.3,0
					C-420.5,603-431.4,610.5-437.4,620.5z M-710.8,630.5c3.3,4.6,7.1,8.8,10.5,13.3c65.3,0.3,130.6,0.1,195.8,0.1
					c8.3,0.3,16.8,0.9,24.7,3.6c0,3.6-0.1,7.2,0.1,10.8c18.5-0.1,37-0.1,55.5,0c0.2-3.5,0.2-7,0-10.5c8.1-3.3,17-3.5,25.6-3.9
					c64.4,0,128.8,0,193.1,0c1.5,0.3,2.4-1.1,3.3-2c3-3.8,6.2-7.4,8.9-11.4c-68.1-0.2-136.2,0-204.2-0.1
					c-10.3,0.3-20.8,0.9-30.5,4.4c-4.5,1.6-9.1,4.8-9.7,10c-9.5,0-19,0.1-28.5,0c-0.4-5.2-5.1-8.3-9.6-9.9c-9.5-3.5-19.7-4-29.7-4.4
					C-573.9,630.5-642.4,630.4-710.8,630.5z M-546,657.1c1.2,7.3,2.2,14.7,3.8,22c6.3,1.7,12.4,3.9,18.6,5.7
					c1.7,3.6,4.3,6.9,5.3,10.7c-1,6.1-2.5,12.1-3.7,18.2c6.2,5.3,12.2,10.8,18.6,15.8c6.6-1.1,12.5-4.8,18.9-6.6
					c4,0.8,7.6,2.7,11.4,4.1c2.9,5.8,6.1,11.4,8.9,17.2c8.5,0,17.1-0.1,25.6-0.5c2.7-4.2,4.5-8.9,6.8-13.3c0.9-1.5,1.3-3.8,3.2-4.3
					c3.3-1.2,6.6-2.6,10-3.5c6.2,2.1,12.1,5.2,18.2,7.8c6.6-5.4,12.9-11.2,19.4-16.8c-1.3-6.4-2.7-12.7-4.2-19
					c2.1-3.4,3.8-7.1,6.2-10.2c6.2-2.4,12.5-4.2,18.7-6.4c1-6.9,2.2-13.8,3.2-20.8c-11.3,0-22.6,0-33.9,0
					c-2,11.3-6.9,22.1-14.5,30.7c-10.1,11.6-24.8,19.3-40.2,20.7c-16.8,1.8-34.2-3.9-46.7-15.2c-10.6-9.3-17.5-22.5-20-36.3
					C-523.4,657.1-534.7,657-546,657.1z M-506.9,657.1c3.6,21.6,20.9,40.3,42.3,45.2c15.4,3.8,32.4,0.7,45.4-8.5
					c12.2-8.5,20.9-22,23.3-36.7c-0.9,0-2.7,0.2-3.7,0.2c-3.3,18.3-17.1,34.3-34.8,40.2c-15,5.2-32.3,3.1-45.5-5.6
					c-12.1-7.8-20.7-20.6-23.4-34.8C-504.2,657.1-506,657.1-506.9,657.1z"/>
			</g>
			<g>
				<path class="st0" d="M-658.1,97.2c5.9-2.1,12.8-1.6,18.1,1.8c6.2,4.1,9.7,12.1,8,19.4c-2.6,12.6-17,21.5-29.5,18
					c-7.8-2.1-13.6-9.9-13.5-17.9C-675,108.6-667.2,100.3-658.1,97.2z M-655.3,109.8c-4.7,1.3-6.8,7.3-3.5,11
					c2.7,4.5,9.6,3.5,11.9-0.8C-644,114.9-649.7,107.7-655.3,109.8z"/>
			</g>
			<path class="st0" d="M-238,117.4c2.5-3.2,4.5-7,7.5-9.8c8.5,5.8,16.5,12.4,25.1,18.2c-2.1,3.7-4.8,6.9-7.3,10.2
				c-2.1-1.7-4.4-3.4-6.7-4.8c-5,6.6-9.6,13.6-15,20c-4-2.8-8-5.6-11.8-8.7c4.6-6.9,10-13.2,14.6-20.1
				C-233.3,120.3-235.9,119.1-238,117.4z"/>
			<path class="st0" d="M-707.5,133.6l10.9-10l24.6,28.3l-11.1,9.8c0,0-5.8-6.9-9.1-9.9c-2,2-6.3,5.7-6.3,5.7l8.4,10.1l-11.3,9.9
				l-24.5-28.7l11.4-9.2l7.9,8.8l6.8-5.6L-707.5,133.6z"/>
			<path class="st0" d="M-283,124.2c2.9-1.4,6.8,1,6.5,4.4c0.2,3.8-4.8,6-7.6,3.5C-286.8,130-286,125.5-283,124.2z"/>
			<path class="st0" d="M-642.3,134.8c2.8-2.9,8.4-0.1,7.7,3.8c0,3.2-4,5.3-6.8,3.7C-644.2,141-644.7,136.8-642.3,134.8z"/>
			<g>
				<path class="st0" d="M-463.7,138.3c6.5-5.2,16.2-5.5,22.8-0.5c9.9,7.3,15.1,19.2,18.7,30.6c11.8-2.1,24.6-4,36,0.9
					c7.4,3.1,12.3,11.1,11.3,19.1c-1.3,12.4-9.2,22.8-17.2,31.9c7,7.9,13.6,16.7,16.4,27c1.8,6.7,0.9,14.6-4.3,19.6
					c-5.9,5.9-14.6,7.4-22.6,7.4c-6.5,0-13-0.8-19.3-2.3c-4.2,11.1-8.8,23.1-18.6,30.5c-6.5,5.1-16.1,5.3-22.7,0.3
					c-9.9-7.3-15.1-19.2-18.7-30.6c-12,2.1-25,4-36.4-1.2c-7.1-3.1-11.7-10.8-10.9-18.6c1.1-12.5,9.2-23,17.2-32.2
					c-8-9.1-16-19.5-17.2-32c-1-8.1,4-16.1,11.5-19.1c11.3-4.8,24-3,35.7-0.8C-478.2,157.3-473.2,145.8-463.7,138.3z M-459.4,143.7
					c-8.4,6.4-12.1,16.8-15.9,26.3c6.2,2.3,12.6,4,18.7,6.8c2.1,0.7,4.3,2.5,6.5,1.1c6.9-3.2,14.2-5.4,21.4-7.9
					c-3.7-9.6-7.4-20-15.9-26.4C-448.8,140.2-455.2,140.2-459.4,143.7z M-515.2,175.9c-5.3,2.2-8,8.3-6.8,13.8
					c1.9,10,8.4,18.4,15,25.8c5.7-6.1,12.7-10.8,18.9-16.3c1-8.1,2.4-16.1,4.1-24C-494.2,173.3-505.3,171.4-515.2,175.9z
					 M-420.1,175.2c1.5,6.8,3,13.6,3.7,20.5c0.4,1.7,0,4,1.9,5c6.1,4.6,12.1,9.4,17.5,14.8c6.9-7.6,13.8-16.4,15.2-26.9
					c1-5.6-2.5-11.2-7.8-13.1C-399.3,171.6-410.1,173.3-420.1,175.2z M-480.2,194.3c6.3-4.4,13.1-8,19.8-11.6
					c-5.4-2.3-11-4.1-16.6-5.8C-478.5,182.5-479.9,188.4-480.2,194.3z M-443.6,182.9c7,3.1,13.5,7.4,20.1,11.3
					c-0.7-5.8-2.1-11.5-3.2-17.2C-432.5,178.4-438.2,180.3-443.6,182.9z M-453,186.9c-9.2,4.2-17.9,9.4-26.3,14.9
					c-0.9,0.7-2.3,1.3-2.2,2.7c-1,10.9-0.9,22,0,33c8.9,6.2,18.2,11.6,27.9,16.3c1.8,1.3,3.6-0.3,5.2-1c8.9-4.6,17.8-9.3,25.7-15.4
					c1.4-11.2,1.2-22.7,0.1-33.9c-8.1-6.2-17.2-11.1-26.3-15.7C-450.1,187.3-451.5,186.1-453,186.9z M-502.2,220.4
					c4.3,3.9,8.4,8.2,13.4,11.3c-0.4-7.7-0.4-15.3,0-23C-493.4,212.4-498,216.3-502.2,220.4z M-415,209c0.1,7.6,0.3,15.1-0.2,22.7
					c5-3.1,9.1-7.4,13.4-11.3C-405.9,216.4-410.2,212.4-415,209z M-522,251c-1.2,5.4,1.2,11.5,6.4,13.8c9.9,4.6,21.3,2.8,31.7,0.9
					c-1.6-8.1-3.4-16.2-4.1-24.4c-6.5-4.9-13-10-18.8-15.8C-513.6,232.6-519.9,241.1-522,251z M-415.9,241.3
					c-0.8,8.2-2.4,16.3-4.1,24.4c10.4,1.8,21.8,3.8,31.7-0.9c5-2.3,7.5-8.1,6.4-13.3c-1.8-10.1-8.4-18.4-14.9-26
					C-402.9,231-409.2,236.4-415.9,241.3z M-480.5,246.5c0.8,5.8,2,11.5,3.3,17.2c5.9-1,11.3-3.5,16.9-5.4
					C-467.2,254.5-474,250.7-480.5,246.5z M-443.6,258.2c5.6,2,11.1,4.4,16.9,5.5c1.3-5.7,2.5-11.4,3.2-17.2
					C-430,250.8-436.8,254.5-443.6,258.2z M-475.1,270.5c2.4,7.8,5.7,15.5,10.8,22c3.3,4.1,8.1,8,13.8,7.2c6-1,10.2-6,13.4-10.7
					c3.6-5.8,6.6-12,8.2-18.6c-7.8-1.9-15.3-5.1-22.7-8.1C-459.5,264.9-467,268.5-475.1,270.5z"/>
			</g>
			<path class="st0" d="M-194.4,176.3c2.6-2.5,5.2-5,7.9-7.4c4.4,4.8,9.2,9.3,13.2,14.4c-2.7,2.3-5.2,4.8-7.8,7.2
				C-185.5,185.6-190,180.9-194.4,176.3z"/>
			<path class="st0" d="M-757.7,184.2l29.7,22.9c0,0-6.4,8.1-9.5,12.2c-9.8-7.8-29.6-23.4-29.6-23.4L-757.7,184.2z"/>
			<path class="st0" d="M-455.1,205.1c8.9-2.1,18.5,5.2,18.7,14.4c0.8,8.5-6.6,16.4-15,16.5c-8.4,0.5-16.3-7-16-15.4
				C-467.8,213.3-462.2,206.5-455.1,205.1z"/>
			<path class="st0" d="M-146.5,215.5c6.1-4.1,14.7-3.8,20.8,0.2c5.9,3.8,9.9,10.1,11.4,16.9c-3.8,2.6-7.7,5.1-11.6,7.5
				c0.2-4.5-1-9.8-5.2-12.1c-4.8-3-12,1.9-10.6,7.5c0.9,4.7,5.4,7.1,9.1,9.4c-4.1,2.3-8,4.7-12,7.1c-6.6-5.1-11.5-13.1-10.8-21.6
				C-155.1,224.4-151.7,218.6-146.5,215.5z"/>
			<g>
				<path class="st0" d="M-783.1,218.6l39.8,7.2l-8.3,13.7c0,0-3.3-0.8-4.9-1.1c-1.9,3.1-5.7,9.3-5.7,9.3l3.3,3.7l-8.6,13.1
					l-24-31.9L-783.1,218.6z M-777.5,231.7l8.4,8.6l3.6-4.7L-777.5,231.7z"/>
			</g>
			<path class="st0" d="M-750.2,244.9c3-1.3,6.7,1.4,6.3,4.6c0,3.1-3.8,5.4-6.6,3.9C-754.1,252-753.9,246.2-750.2,244.9z"/>
			<g>
				<path class="st0" d="M-119.1,253.1c7.4-2.1,15.4,1.1,20.3,6.8c5.3,6.3,7.9,15.1,5.5,23.1c-2.6,9-12.5,14.9-21.6,12.9
					c-13.9-2.9-22.2-20.2-16.1-33C-128.9,258-124.2,254.6-119.1,253.1z M-115.3,267.8c-4.4,1.4-6.1,7.1-3.2,10.7
					c3.1,5.1,11.8,2.7,12.8-2.9C-104.7,270.5-110.3,265.3-115.3,267.8z"/>
			</g>
			<polygon class="st0" points="-97.1,258.5 -89.4,259.4 -86.7,264.7 -90.9,271.6 -92.1,267.8 -91.1,263.2 -95.4,261.4 			"/>
			<g>
				<path class="st0" d="M-810.8,271.3c4-6.2,11.7-10.6,19.2-9.1c6.7,1.2,12.5,6.4,13.8,13.1c2.3,8.6-2.2,16.8-5.4,24.6
					c-1.2,2.3-1.8,5.3-3.6,7.2c-4.5-1.5-8.7-4.1-13.3-5.5c-0.5,1.4-1,2.8-1.6,4.1c-2.7-1.1-5.5-2.3-8.2-3.4c0.6-1.4,1.2-2.8,1.8-4.2
					c-4.2-2.1-8.5-3.9-12.8-5.7C-817.7,285.2-815,277.9-810.8,271.3z M-799.2,276c-3.4,1.3-5.4,4.7-6.3,8c0.8,0.3,2.5,1,3.3,1.4
					c0.9-1.8,1.7-3.5,2.5-5.4c2.3,1.3,5.3,1.7,7.2,3.6c-0.4,1.8-1.3,3.4-2,5.1c1.3,0.6,2.7,1.2,4,1.8c1.4-3,2.8-6.5,1.5-9.8
					C-790.5,277-795.3,274.9-799.2,276z"/>
			</g>
			<path class="st0" d="M-116.1,314.1c12-3.7,24.1-7.3,36.3-10.6c1.2,4.7,2.7,9.4,4,14.1c-4.8,5.9-10.2,11.3-14.6,17.5
				c5.7-2.6,11.9-3.9,17.9-5.6c1.8,4.5,2.8,9.2,4.1,13.9c-12.1,3.3-24,7.1-36.1,10.3c-1.3-4.7-2.8-9.4-4.1-14.2
				c4.7-5.7,9.8-11.1,14.3-17c-5.8,1.9-11.8,3.4-17.6,5.3C-113.5,323.4-114.5,318.7-116.1,314.1z"/>
			<path class="st0" d="M-824.4,362.4c1.4-7.6,2.7-15.2,4.5-22.8c4.5,1,9.4,2.1,12.8,5.6c10.6,10.4,7.1,31-6.3,37.5
				c-6.3,3.1-14.3,2-19.7-2.3c-12.6-10.1-8.7-33.5,6.5-39c0.6,4.6,1.3,9.1,1.8,13.7c-2.9,1.7-4.9,5-4.1,8.4
				c1.1,4.6,6.4,6.2,10.6,5.8c5.3-0.4,8.2-8.3,4-11.8c-0.5,2.1-0.9,4.3-1.2,6.5C-818.6,363.5-821.5,363-824.4,362.4z"/>
			<path class="st0" d="M-704.4,346.7c4-3,8.9-4.5,13.9-4.5c31.5,0,62.9,0,94.3,0c0,16.9,0,33.7,0,50.6c-20.5,0.1-40.9,0-61.4,0
				c-6.8-0.1-13.2,5.7-13,12.7c-0.1,16.7,0,33.4-0.1,50.1c-0.2,4.7,1.9,9.8,6.1,12.1c3.9,2.6,8.7,2,13.1,2.1
				c18.4-0.1,36.8,0.1,55.1-0.1c0.3,16.9,0.2,33.8,0,50.7c-29.7-0.1-59.5,0-89.2,0c-6.2,0.2-12.8-0.1-18.1-3.9
				c-9.1-6.4-13-18.1-13.1-28.9c0-35.3,0-70.7,0-106C-717.4,369-714.9,354.8-704.4,346.7z"/>
			<path class="st0" d="M-579.5,342.3c39.7-0.1,79.4,0,119.2,0c-0.2,17,0.4,34-0.3,50.9c-12-0.3-24-0.1-36-0.1
				c0,42.4,0,84.9,0,127.3c-15.6,0-31.2,0-46.8,0c0-30.3,0-60.6,0-90.8c-0.2-12.2,0.3-24.4-0.2-36.6c-12,0.2-23.9,0.1-35.9,0.1
				C-579.4,376.1-579.5,359.2-579.5,342.3z"/>
			<path class="st0" d="M-443.6,342.2c15.6,0.1,31.3-0.2,46.9,0.1c-0.2,37.7,0,75.5-0.1,113.2c-0.3,6.1,3,12.9,9.3,14.6
				c4.4,1,9.6,0.6,13.1-2.6c3.2-3.1,4.7-7.6,4.6-12c0-37.8,0-75.5,0-113.3c15.6,0,31.2,0,46.8,0c0.1,49.4,0,98.9,0.1,148.3
				c0.1,5.7-1,11.6-4.1,16.4c-5.6,8.8-16.2,13.3-26.4,13.3c-19.7,0-39.3,0-59,0c-9.5,0-19.4-3.7-25.5-11.2c-4-4.9-5.7-11.4-5.6-17.6
				C-443.6,441.8-443.7,392-443.6,342.2z"/>
			<path class="st0" d="M-306.4,342.3c39.7-0.1,79.5,0,119.2,0c0,16.9,0,33.8,0,50.8c-12.1,0.1-24.3-0.1-36.4,0.1
				c0.1,42.4,0.1,84.8,0,127.2c-15.6-0.1-31.2,0-46.8,0c0-30.6,0-61.2,0-91.8c-0.1-11.9,0.3-23.8-0.2-35.6
				c-11.9,0.1-23.9,0.1-35.8,0C-306.4,376.1-306.4,359.2-306.4,342.3z"/>
			<path class="st0" d="M-93.7,368.3c6.4-6.3,17.5-6.8,24.5-1.1c10.8,8.6,11.8,27.1,1.2,36.3c-2.3-4.1-4.2-8.4-6.3-12.5
				c2.3-2.7,3.2-6.7,1-9.7c-2.9-3.9-8.9-3.6-12.7-1.1c-3.9,2.7-3.7,9.9,0.9,11.8c-0.1-2.2-0.4-4.4-0.5-6.5c2.8-0.8,5.8-0.9,8.6-1.3
				c1,7.6,2,15.3,3,23c-4.9,0.6-10.2,1.1-14.6-1.5C-101.5,398.7-104.3,378.4-93.7,368.3z"/>
			<path class="st0" d="M-845.5,398.4c12.5,0.5,25,0.9,37.6,1.4c-0.2,4.9-0.4,9.8-0.5,14.7c-6.4,4-12.9,7.7-19.3,11.7
				c6.2-0.1,12.5,0.4,18.7,0.5c0,4.8-0.3,9.6-0.4,14.5c-12.5-0.4-25-1-37.5-1.3c0.1-5,0.1-10,0.7-15c6.6-3.7,13.1-7.7,19.6-11.7
				c-6.4,0.6-12.8-0.2-19.3-0.3C-845.9,408-845.7,403.2-845.5,398.4z"/>
			<path class="st0" d="M-95.9,447.7c12.4,0.6,24.8,2.5,37.3,3.3c-0.1,4.9-0.2,10.1-1.5,14.9c-6.4,3.6-13,6.9-19.6,10.2
				c6.2,0.9,12.6,1.1,18.8,1.9c-0.5,4.8-1,9.6-1.4,14.4c-12.4-1.2-24.9-2.5-37.3-3.6c0.3-5,0.7-10,1.5-15
				c6.5-3.3,13.1-6.5,19.4-10.2c-6.1-0.5-12.2-1.2-18.3-1.7C-96.8,457.1-96.1,452.4-95.9,447.7z"/>
			<g>
				<path class="st0" d="M-847.6,454.5c4.1-0.4,10.1-0.9,11.5,4.1c5.7-3,12.7-4.1,18.6-1c13.5,6.6,16.3,27.3,5.5,37.5
					c-6.7,6.5-18.4,6.6-25.2,0.3c-9.7-8.7-10.3-25.3-1.3-34.8c-1.2-3.1-5.9-1.3-8.5-1.5C-847.2,457.5-847.4,456-847.6,454.5z
					 M-827.1,471.2c-4.8,0.9-6.6,7.1-3.8,10.9c3.3,5.1,12.9,2.8,12.9-3.5C-817.3,473.6-822.4,469.5-827.1,471.2z"/>
			</g>
			<polygon class="st0" points="-847.9,476.6 -847.6,479.9 -853.3,487.6 -854,481.5 			"/>
			<path class="st0" d="M-96.5,506.6c8-4,18.6-1.2,23.6,6.2c8.1,11.9,2.2,30.8-11.6,35.4c-0.5-4.6-0.8-9.3-1.1-13.9
				c2.4-1.5,4.7-3.8,4.6-6.9c0.3-6.2-7.7-9.1-12.7-7.2c-3.6,1.7-6.1,8.1-2.1,10.5c0.5-2,1-4.1,1.6-6.1c2.8,0.7,5.7,1.4,8.6,2.1
				c-1.7,7.5-3.8,14.9-5.6,22.4c-5-0.8-10.1-2.8-13.3-6.8C-113.4,531.6-109.1,512.8-96.5,506.6z"/>
			<path class="st0" d="M-839.3,512.9c4.3-1.3,10.5-1.6,12.3,3.6c6.2-0.7,12.1-4.1,18.5-3.2c6.2,1.1,10.6,6.6,12.6,12.3
				c2.1,6,2.8,13.1-0.7,18.8c-2.2,3.7-6.3,5.4-10.3,6.5c-6.8,1.9-13.6,3.8-20.4,5.6c-1.3-4.8-2.7-9.6-3.9-14.5
				c6.4-1.7,12.7-3.5,19-5.2c1.9-0.6,4-1,5.3-2.6c1.4-2.5-0.4-6.6-3.6-6.1c-7.9,1.3-15.3,4.3-23.1,5.8c-1.1-4.8-2.6-9.5-3.8-14.3
				c2.8-0.8,5.7-1.2,8.2-2.8c-2.9-1-5.9-0.4-8.7,0.4C-838.4,515.8-838.9,514.3-839.3,512.9z"/>
			<g>
				<path class="st0" d="M-797.8,570.6c3-5.4,6.2-10.7,9.4-15.9c2.2,5.2,4.5,10.3,6.6,15.5c-2.9,3.7-5.5,7.6-8.5,11.2
					c3.9-1.4,7.6-3.2,11.4-4.8c1.8,4.6,4.2,8.9,5.6,13.7c-11.5,4.7-22.9,9.9-34.3,14.7c-2.5-5.7-5-11.4-7.4-17.1
					c-1.7-3.9-2.9-8.2-2.1-12.5c1.1-5.6,7.1-9.5,12.7-9C-801.7,566.7-799.7,568.8-797.8,570.6z M-804,580.2
					c-3.3,1.4-1.7,5.1-0.6,7.5c2.3-1,4.6-1.9,6.8-2.9C-798.8,582.3-800.7,578.5-804,580.2z"/>
			</g>
			<path class="st0" d="M-122.4,568.5c1.6-4.7,3.8-9.2,5.7-13.8c11.4,5,23.1,9.4,34.3,14.8c-1.5,4.7-3.7,9.2-5.7,13.7
				c-3.8-1.7-7.6-3.3-11.4-4.8c-1.1,2.7-2.5,5.3-3.3,8.1c3.6,1.9,7.6,3.2,11.3,5c-1.9,4.6-3.9,9.1-5.7,13.7
				c-11.6-4.7-23.1-9.7-34.7-14.6c2-4.6,3.7-9.4,6-13.8c3.8,1.9,7.9,3.4,11.7,5.2c1.5-2.7,2.6-5.5,3.7-8.3
				C-114.4,571.9-118.5,570.5-122.4,568.5z"/>
			<path class="st0" d="M-138.6,602.9c10.8,6.2,21.5,12.7,32.3,18.8c-4.4,8.2-9.2,16.2-14.1,24.1c-2.9-1.8-5.8-3.5-8.7-5.3
				c2.2-3.7,4.4-7.5,6.6-11.2c-1-0.6-2-1.2-3-1.8c-2.2,3.2-3.6,7-6.1,9.9c-2.9-0.9-5.3-3-8.1-4.3c1.4-3.6,3.6-6.9,5.8-10.1
				c-1-0.9-2-1.7-3-2.6c-2.7,3.8-4.7,7.9-7.2,11.8c-2.8-1.8-5.7-3.5-8.7-5.1C-148.2,619-143.3,611-138.6,602.9z"/>
			<path class="st0" d="M-153.3,605.9c3.2-2.2,7.8,1,7,4.7c-0.4,3.3-4.7,5-7.3,3C-156.2,611.9-156.1,607.4-153.3,605.9z"/>
			<path class="st0" d="M-785.9,619.4c7.4-4,14.7-8.1,21.8-12.5c2.8,4.2,5.3,8.7,7.6,13.2c-7.4,3.9-14.5,8.3-21.8,12.4
				c1.3,2.4,2.9,4.6,3.9,7.1c-3.4,2.4-7,4.2-10.7,6.1c-4.9-9.3-10.7-18.1-15.3-27.5c3.7-1.8,7-4.1,10.7-5.8
				C-788.5,614.7-787.2,617-785.9,619.4z"/>
			<path class="st0" d="M-108.6,636.2l-0.9-4.4l1.7-3.5c0,0,2.5,4.7,3.8,7.1c-1.1,1.8-3.3,5.3-3.3,5.3l-7.8,0l2.3-3.1L-108.6,636.2z
				"/>
			<path class="st0" d="M-716.5,722.5c4.8-5.6,10.4-10.6,15.6-15.8c5.2,5.3,10.5,10.5,15.7,15.8c-5.3,5.2-10.4,10.7-16,15.7
				C-706.1,732.8-711.8,728.1-716.5,722.5z"/>
			<path class="st0" d="M-221.6,722.6c5.4-5.2,10.4-10.6,15.9-15.7c4.9,5.4,10.5,10.2,15.3,15.7c-4.7,5.7-10.3,10.7-15.6,15.9
				C-211.1,733-216.6,728-221.6,722.6z"/>
			<path class="st0" d="M-536.9,774.4c0,0,4,0.9,5.9,1.5c0.6,2.4,1.8,7.1,1.8,7.1l-2.9-0.5L-536.9,774.4z"/>
			<g>
				<path class="st0" d="M-324.3,775.6c1.5-0.4,3-0.8,4.5-1.1c1,4,2.2,9.2-2,11.9c4.6,4.9,6.3,12.4,3.8,18.7
					c-4.8,12.5-21.8,18-33.1,11.1c-7.5-4.3-10.6-14.6-7.1-22.5c3.9-9.4,14.9-14.4,24.8-13.2c3.7,0.3,6.9,2.4,10.3,3.6
					C-322.7,781.2-323.4,778.3-324.3,775.6z M-341.3,793.7c-5.3,2-4.7,10.2,0.1,12.5c4.3,2.1,10.7-1.6,9.7-6.7
					C-331.6,794.7-337,791.2-341.3,793.7z"/>
			</g>
			<path class="st0" d="M-599.8,788.3c2.2-6.6,8.5-11.4,15.4-12.2c7.2-0.9,14.4,1.8,19.8,6.4c-1.5,4.1-3.1,8.1-4.4,12.3
				c-2.9-2.9-6-6.4-10.5-6.2c-5.7-0.1-9.2,8-4.9,11.9c3.4,3.3,8.6,2.8,12.9,2.1c-1.9,4.2-3.5,8.4-5.3,12.6
				c-8-0.2-16.5-3.5-20.9-10.5C-601,800-601.9,793.7-599.8,788.3z"/>
			<path class="st0" d="M-385.7,792.8c4.8-0.8,9.5-1.7,14.3-2.4c2.1,12,4.3,23.9,6.2,35.9c-4.8,0.8-9.5,1.7-14.3,2.4
				c-0.7-4.2-1.5-8.3-2.1-12.5c-2.9,0.4-5.8,0.9-8.7,1.5c0.8,4.2,1.6,8.4,2.1,12.7c-4.8,0.7-9.5,1.6-14.3,2.4c-1.9-12-4.4-24-6.1-36
				c4.8-0.6,9.5-2,14.4-2.1c0.5,3.8,1.2,7.7,1.7,11.5c2.9-0.4,5.7-0.8,8.6-1.3C-384.3,800.8-385.2,796.8-385.7,792.8z"/>
			<path class="st0" d="M-519,830.5c1.2-12.1,2.8-24.3,4.2-36.4c4.7,0.7,9.4,0.9,14,1.8c3.6,6.4,6.5,13.2,10,19.7
				c0.6-6.1,1-12.2,2.1-18.2c4.6,0,9.1,1.1,13.6,1.3c-1,12.1-2.9,24.2-4.1,36.3c-4.8-0.6-9.5-1.1-14.3-1.7
				c-3.2-6.6-6.7-13.1-9.7-19.9c-0.6,6.1-1.4,12.3-2.1,18.4C-509.8,831.5-514.4,830.8-519,830.5z"/>
			<path class="st0" d="M-445.7,799.3c10.2-0.4,20.4-1.6,30.6-1.6c0.1,3.9,0.4,7.8,0.5,11.8c-2.6,0.1-5.3,0.3-7.9,0.4
				c0.3,8.2,1.1,16.3,1.3,24.5c-4.8,0.1-9.6,0.6-14.4,0.7c-0.4-8.1-0.9-16.2-1.5-24.3c-2.7,0.1-5.4,0.3-8,0.4
				C-445.2,807.2-445.4,803.2-445.7,799.3z"/>
		</g>
		<g>
			<path class="st2" d="M-542.8,799.4c-1.5,3.7-3.5,7.2-5.6,10.6c1.9,0.5,3.8,1,5.7,1.5C-543,807.4-543.1,803.4-542.8,799.4z"/>
			<path class="st0" d="M-532.1,790.1c-1-0.2-15.4-3.6-15.4-3.6l-23,31.5l15.1,3.9l2.6-4.1l10.2,2.6l0.3,4.9l15.1,3.7
				C-527.1,829-530.4,803.1-532.1,790.1z M-548.5,810l5.6-10.6l0,12L-548.5,810z"/>
			<path class="st0" d="M-533.3,787.6c0,0-1.5-4.5-2.3-6.7c-1.9-0.4-5.7-1.1-5.7-1.1l-5.5,5.3l3.4,0.8l4-2.2l3,3.6L-533.3,787.6
				L-533.3,787.6z"/>
		</g>
	</g>
</g>
<circle cx="432" cy="432" r="429.5"/>
<circle class="st1" cx="432" cy="432" r="416.6"/>
<g>
	<g>
		<path d="M397.5,34c0.8-0.3,1.1-2.3,2-2.2c0.5,0,0.9,0,1.5,0c1.3,2.6-1.4,6.4-4.5,5.5c-1.1-0.2-2.3-0.5-3.3,0
			c-1,0.5-1.4,1.7-2.5,1.8c-0.8,0.1-1.3,0-2.3,0c0.3-1.7,0.6-3.5,2.2-4.6C392.7,33.2,395.4,34.7,397.5,34z"/>
		<path d="M400.5,40.7c5.5-0.5,11-1.1,16.5-1.5c-3.8,7.3-8.1,14.4-12,21.7c-0.4,5.6,1,11.4,1.1,17c-5,0.4-10,1-15,1.3
			c-0.6-5.5-0.7-11.1-1.7-16.6c-4.7-6.8-10.7-12.6-15-19.6c5.6-0.4,11.2-1.2,16.8-1.3c1.6,3,3.4,6,5.1,9.1c1.8-3,2.5-6.5,3.8-9.7
			L400.5,40.7z"/>
		<path d="M454.1,39.9c10.5,0.8,20.9,2.1,31.4,3c-0.3,4.1-0.8,8.1-1,12.2c-2.8-0.2-5.7-0.4-8.5-0.5c-0.5,8.3-1.6,16.6-2.3,24.9
			c-4.9-0.5-9.9-1-14.8-1.4c0.7-8.4,1.7-16.8,2.4-25.2c-2.7-0.2-5.5-0.5-8.2-0.8C453.3,48,453.7,44,454.1,39.9z"/>
		<path d="M350.1,48c5.5-1.3,11-2.6,16.5-3.8c-2.6,7-5.6,13.9-8,20.9c6.1,5,12,10.1,17.9,15.3c-5.9,1.4-11.8,2.8-17.7,4
			c-4.3-4.3-8.5-8.7-13.1-12.8c1.3,5,2.5,10,3.5,15.1c-4.7,1-9.5,2-14.1,3.2c-3-12.2-5.7-24.5-8.4-36.8c4.7-1.1,9.5-2.1,14.2-3.2
			c1.5,4.9,1.9,10.1,3.8,14.8C346.6,59.2,348.3,53.6,350.1,48z"/>
		<path d="M492.7,81.9c2.6-12.3,5.5-24.5,8.5-36.7c4.8,1.2,9.7,2.3,14.5,3.4c-0.9,4.1-1.8,8.1-2.7,12.2c2.9,0.7,5.8,1.4,8.7,1.9
			c0.9-4,1.8-8,2.8-12c4.9,1.1,9.8,2.2,14.6,3.5c-3,12.1-5.6,24.4-8.5,36.5c-4.9-1.2-9.9-2-14.7-3.6c1.2-4.2,2.2-8.4,3-12.7
			c-2.9-0.6-5.7-1.3-8.6-1.9c-1.1,4.3-2,8.6-3.1,12.9C502.3,84.1,497.5,83,492.7,81.9z"/>
		<path d="M557,59.7c4.8,1.7,9.5,3.4,14.1,5.5c-2.5,5.7-4.5,11.5-6.9,17.2c-0.8,2.2-2,4.5-1.5,6.9c1.3,3,6.3,3.4,7.4,0
			c3.2-6.9,5.6-14.1,8.4-21.2c4.7,1.7,9.4,3.3,13.9,5.5c-1.5,4.7-3.5,9.1-5.2,13.8c-2,4.7-3.3,10.1-7.2,13.7c-4.8,4-11.8,4-17.5,2.1
			c-5.9-1.9-11.6-5.7-14-11.6c-1.6-3.7-0.7-7.9,0.7-11.6C551.7,73.2,554.5,66.5,557,59.7z"/>
		<path d="M260.3,86.3c2.5-10.1,12.9-16.8,23.1-17.1c1.7,4.2,3.7,8.2,5.5,12.3c-4.5-0.6-9.7-0.3-12.7,3.5
			c-3.4,4.2-0.1,11.6,5.4,11.6c4.7,0,8-3.6,10.5-7.1c0.2,0.1,0.7,0.2,0.9,0.3c1.5,4.1,4.1,8.1,4.6,12.4c-6.5,6.2-16.4,9.6-25.2,6.4
			C263.3,105.8,257.9,95.4,260.3,86.3z"/>
		<polygon points="619.5,84.9 626.4,81.6 631.6,84.4 631.9,92.3 628.6,90.5 627.4,85.5 622.5,87 		"/>
		<g>
			<path d="M615.9,87.9c0.9-0.6,1.9-1.9,3-1c4.6,2.5,9.1,5,13.5,7.7c-2,13.2-3.9,26.4-5.7,39.7c-4.9-2.3-9.5-5.2-14.1-7.8
				c0.4-1.6,0.8-3.2,1.1-4.8c-3.4-1.7-6.5-3.9-10-5.2c-1.1,1-1.8,2.7-3.4,3c-4.6-2.2-8.8-5.2-13.5-7.3c1.8-2.3,4.3-3.9,6.5-5.8
				C600.9,100.2,608.4,94.1,615.9,87.9z M619.3,100.5c-2.6,3.3-5.6,6.2-8.5,9.1c1.7,1,3.5,2,5.3,3
				C616.8,108.5,617.8,104.4,619.3,100.5z"/>
		</g>
		<g>
			<path d="M403.1,94.3c51.9-4.4,104.8,3.1,153.2,22.3C616,140,668.6,180.9,706.2,232.8c23.3,32,41,68.2,51.8,106.3
				c21.7,75.9,15.9,159.4-16.6,231.4c-26.7,59.8-71.2,111.4-126.3,146.7c-32.5,20.9-68.5,36.2-106.1,44.9
				c-77.6,18.2-161.5,8-232.3-28.8c-62.2-32-114-83.8-146-146c-37.4-71.8-47.3-157.3-28-235.8c17.1-71,58.2-135.8,114.8-181.9
				C269.9,126.5,335.5,99.9,403.1,94.3z M362.5,113.1c-39.1,8.5-76.6,24.3-109.9,46.3c-57,37.5-101.8,93.2-125.8,157.1
				c-29.1,76.5-28.1,164.3,3.7,239.8c84,0.3,168,0,252,0.2c7.9,0.3,16.5,0.3,23.4,4.8c5.4,3.1,9.8,7.6,13.4,12.5
				c6.1,8.2,9.1,18.1,12.2,27.7c0.9-3.4,0.9-6.9,1.6-10.3c2.6-14.4,8.8-28.6,19.6-38.7c4.6-4.2,9.7-8.2,15.9-9.6
				c4.2-1.1,8.6-0.8,13-0.8c85.9,0,171.8,0,257.8,0c22-61.1,25.1-128.8,8.9-191.6c-9.3-36.2-24.9-70.7-45.9-101.6
				c-38.5-56.9-95.3-101.1-159.9-124.2C485,104.1,421.9,100.2,362.5,113.1z M461,552c-10.6,7.5-17.9,19.1-21.4,31.5
				c5.1-9,11.1-18.3,20.6-23.2c5.3-2.9,11.3-4.1,17.3-3.8c85.4,0.1,170.8,0,256.1,0c1.4-3.1,2.7-6.3,3.7-9.5
				c-87.3,0.1-174.6,0-261.8,0.1C470.3,547.1,465.2,549,461,552z M133.4,562.8c0.8,3.3,2.5,6.2,3.8,9.3c83.4,0.1,166.9,0,250.3,0.1
				c14.1,0,26.7,8.4,34.9,19.4c-3-7.1-7.2-13.8-12.8-19.1c-3.5-3.3-7.4-6.5-12.1-7.8c-7.5-2.2-15.3-1.7-23-1.8
				C294.2,562.8,213.8,563,133.4,562.8z M466.1,565c-11.9,4.8-19.7,15.9-24.4,27.4c7.7-11.6,20.7-20,34.9-20.2
				c83.4-0.1,166.9,0.1,250.3-0.1c1.4-3,2.7-6,4.1-9c-4.1-0.4-8.3-0.2-12.5-0.2c-78,0-156,0-234,0C478.3,563,471.9,562.4,466.1,565z
				 M142.3,581.8c1.3,3.2,3.1,6.2,4.8,9.2c81.1,0.1,162.3,0,243.4,0.1c11.3,0.1,21.9,5.7,29.8,13.6c-5.2-13-18.6-22.8-32.8-22.8
				C305.8,581.8,224,581.9,142.3,581.8z M443.6,605.4c8-8.5,19.2-14.3,31-14.3c80.8,0,161.6,0,242.4,0c1.7-3,3.5-6.1,4.7-9.3
				c-81.8,0.1-163.5,0-245.3,0C462,582,449.1,592.3,443.6,605.4z M154.3,603.2c2.1,3,3.5,6.6,6.2,9.2c17,0.4,34.1,0,51.1,0.2
				c59.3,0,118.6,0,178,0c6,0.1,12.2-0.3,17.9,1.9c3.8,1.3,7,3.7,10.2,6c-5.8-10.3-17.1-17.6-29.1-17.4
				C310.4,603.2,232.4,603,154.3,603.2z M446.6,620.5c5.9-4.8,13.2-8.1,20.9-7.8c78.7,0,157.4-0.1,236.1,0.1
				c2.2-3.1,4.2-6.3,6.1-9.6c-78.1-0.1-156.2,0-234.3,0C463.5,603,452.6,610.5,446.6,620.5z M173.2,630.5c3.3,4.6,7.1,8.8,10.5,13.3
				c65.3,0.3,130.6,0.1,195.8,0.1c8.3,0.3,16.8,0.9,24.7,3.6c0,3.6-0.1,7.2,0.1,10.8c18.5-0.1,37-0.1,55.5,0c0.2-3.5,0.2-7,0-10.5
				c8.1-3.3,17-3.5,25.6-3.9c64.4,0,128.8,0,193.1,0c1.5,0.3,2.4-1.1,3.3-2c3-3.8,6.2-7.4,8.9-11.4c-68.1-0.2-136.2,0-204.2-0.1
				c-10.3,0.3-20.8,0.9-30.5,4.4c-4.5,1.6-9.1,4.8-9.7,10c-9.5,0-19,0.1-28.5,0c-0.4-5.2-5.1-8.3-9.6-9.9c-9.5-3.5-19.7-4-29.7-4.4
				C310.1,630.5,241.6,630.4,173.2,630.5z M338,657.1c1.2,7.3,2.2,14.7,3.8,22c6.3,1.7,12.4,3.9,18.6,5.7c1.7,3.6,4.3,6.9,5.3,10.7
				c-1,6.1-2.5,12.1-3.7,18.2c6.2,5.3,12.2,10.8,18.6,15.8c6.6-1.1,12.5-4.8,18.9-6.6c4,0.8,7.6,2.7,11.4,4.1
				c2.9,5.8,6.1,11.4,8.9,17.2c8.5,0,17.1-0.1,25.6-0.5c2.7-4.2,4.5-8.9,6.8-13.3c0.9-1.5,1.3-3.8,3.2-4.3c3.3-1.2,6.6-2.6,10-3.5
				c6.2,2.1,12.1,5.2,18.2,7.8c6.6-5.4,12.9-11.2,19.4-16.8c-1.3-6.4-2.7-12.7-4.2-19c2.1-3.4,3.8-7.1,6.2-10.2
				c6.2-2.4,12.5-4.2,18.7-6.4c1-6.9,2.2-13.8,3.2-20.8c-11.3,0-22.6,0-33.9,0c-2,11.3-6.9,22.1-14.5,30.7
				c-10.1,11.6-24.8,19.3-40.2,20.7c-16.8,1.8-34.2-3.9-46.7-15.2c-10.6-9.3-17.5-22.5-20-36.3C360.6,657.1,349.3,657,338,657.1z
				 M377.1,657.1c3.6,21.6,20.9,40.3,42.3,45.2c15.4,3.8,32.4,0.7,45.4-8.5c12.2-8.5,20.9-22,23.3-36.7c-0.9,0-2.7,0.2-3.7,0.2
				c-3.3,18.3-17.1,34.3-34.8,40.2c-15,5.2-32.3,3.1-45.5-5.6c-12.1-7.8-20.7-20.6-23.4-34.8C379.8,657.1,378,657.1,377.1,657.1z"/>
		</g>
		<g>
			<path d="M225.9,97.2c5.9-2.1,12.8-1.6,18.1,1.8c6.2,4.1,9.7,12.1,8.1,19.4c-2.7,12.6-17,21.5-29.5,18
				c-7.8-2.1-13.6-9.9-13.5-17.9C209,108.6,216.8,100.3,225.9,97.2z M228.7,109.8c-4.7,1.3-6.8,7.3-3.5,11c2.7,4.5,9.6,3.5,11.9-0.8
				C240,114.9,234.3,107.7,228.7,109.8z"/>
		</g>
		<path d="M646,117.4c2.5-3.2,4.5-7,7.5-9.8c8.5,5.8,16.5,12.4,25.1,18.2c-2.1,3.7-4.8,6.9-7.3,10.2c-2.2-1.7-4.4-3.4-6.7-4.8
			c-5,6.6-9.6,13.6-15,20c-4-2.8-8-5.6-11.8-8.7c4.6-6.9,10-13.2,14.6-20.1C650.7,120.3,648.1,119.1,646,117.4z"/>
		<path d="M176.5,133.6l10.9-10l24.6,28.3l-11.1,9.8c0,0-5.8-6.9-9.1-9.9c-2,2-6.3,5.7-6.3,5.7l8.4,10.1l-11.3,9.9l-24.5-28.7
			l11.3-9.2l7.9,8.8l6.8-5.6L176.5,133.6z"/>
		<path d="M601,124.2c2.9-1.4,6.8,1,6.5,4.4c0.2,3.8-4.8,6-7.6,3.5C597.2,130,598,125.5,601,124.2z"/>
		<path d="M241.7,134.8c2.8-2.9,8.4-0.1,7.7,3.8c-0.1,3.2-4,5.3-6.8,3.7C239.8,141,239.3,136.8,241.7,134.8z"/>
		<g>
			<path d="M420.3,138.3c6.5-5.2,16.2-5.5,22.8-0.5c9.9,7.3,15.1,19.2,18.7,30.6c11.8-2.1,24.6-4,36,0.9
				c7.4,3.1,12.3,11.1,11.3,19.1c-1.3,12.4-9.2,22.8-17.2,31.9c7,7.9,13.6,16.7,16.4,27c1.8,6.7,0.9,14.6-4.3,19.6
				c-5.9,5.9-14.6,7.4-22.6,7.4c-6.5,0-13-0.8-19.3-2.3c-4.2,11.1-8.8,23.1-18.6,30.5c-6.5,5.1-16.1,5.3-22.7,0.3
				c-9.9-7.3-15.1-19.2-18.7-30.6c-12,2.1-25,4-36.4-1.2c-7.1-3.1-11.7-10.8-10.9-18.6c1.1-12.5,9.2-23,17.2-32.2
				c-8-9.1-16-19.5-17.2-32c-1-8.1,4-16.1,11.5-19.1c11.3-4.8,24-3,35.7-0.8C405.8,157.3,410.8,145.8,420.3,138.3z M424.6,143.7
				c-8.4,6.4-12.1,16.8-15.9,26.3c6.2,2.3,12.6,4,18.7,6.8c2.1,0.7,4.3,2.5,6.5,1.1c6.9-3.2,14.2-5.4,21.4-7.9
				c-3.7-9.6-7.4-20-15.9-26.4C435.2,140.2,428.8,140.2,424.6,143.7z M368.8,175.9c-5.3,2.2-8,8.3-6.8,13.8c1.9,10,8.4,18.4,15,25.8
				c5.7-6.1,12.7-10.8,18.9-16.3c1-8.1,2.4-16.1,4.1-24C389.8,173.3,378.7,171.4,368.8,175.9z M463.9,175.2c1.5,6.8,3,13.6,3.7,20.5
				c0.4,1.7,0,4,1.9,5c6.1,4.6,12.1,9.4,17.5,14.8c6.9-7.6,13.8-16.4,15.2-26.9c1-5.6-2.5-11.2-7.8-13.1
				C484.7,171.6,473.9,173.3,463.9,175.2z M403.8,194.3c6.3-4.4,13.1-8,19.8-11.6c-5.4-2.3-11-4.1-16.6-5.8
				C405.5,182.5,404.1,188.4,403.8,194.3z M440.4,182.9c7,3.1,13.5,7.4,20.1,11.3c-0.7-5.8-2.1-11.5-3.2-17.2
				C451.5,178.4,445.8,180.3,440.4,182.9z M431,186.9c-9.2,4.2-17.9,9.4-26.3,14.9c-0.9,0.7-2.3,1.3-2.2,2.7c-1,10.9-0.9,22,0,33
				c8.9,6.2,18.2,11.6,27.9,16.3c1.8,1.3,3.6-0.3,5.2-1c8.9-4.6,17.8-9.3,25.7-15.4c1.4-11.2,1.2-22.7,0.1-33.9
				c-8.1-6.2-17.2-11.1-26.3-15.7C433.9,187.3,432.5,186.1,431,186.9z M381.8,220.4c4.3,3.9,8.4,8.2,13.4,11.3
				c-0.4-7.7-0.4-15.3,0-23C390.6,212.4,386,216.3,381.8,220.4z M469,209c0.1,7.6,0.3,15.1-0.2,22.7c5-3.1,9.1-7.4,13.4-11.3
				C478.1,216.4,473.8,212.4,469,209z M362,251c-1.2,5.4,1.2,11.5,6.4,13.8c9.9,4.6,21.3,2.8,31.7,0.9c-1.6-8.1-3.4-16.2-4.1-24.4
				c-6.5-4.9-13-10-18.8-15.8C370.4,232.6,364.1,241.1,362,251z M468.1,241.3c-0.8,8.2-2.4,16.3-4.1,24.4
				c10.4,1.8,21.8,3.8,31.7-0.9c5-2.3,7.5-8.1,6.4-13.3c-1.8-10.1-8.4-18.4-14.9-26C481.1,231,474.8,236.4,468.1,241.3z
				 M403.5,246.5c0.8,5.8,2,11.5,3.3,17.2c5.9-1,11.3-3.5,16.9-5.4C416.8,254.5,410,250.7,403.5,246.5z M440.4,258.2
				c5.6,2,11.1,4.4,16.9,5.5c1.3-5.7,2.5-11.4,3.2-17.2C454,250.8,447.2,254.5,440.4,258.2z M408.9,270.5c2.4,7.8,5.7,15.5,10.8,22
				c3.3,4.1,8.1,8,13.8,7.2c6-1,10.2-6,13.4-10.7c3.6-5.8,6.6-12,8.2-18.6c-7.8-1.9-15.3-5.1-22.7-8.1
				C424.5,264.9,417,268.5,408.9,270.5z"/>
		</g>
		<path d="M689.6,176.3c2.6-2.5,5.2-5,7.9-7.4c4.4,4.8,9.2,9.3,13.2,14.4c-2.7,2.3-5.2,4.8-7.8,7.2
			C698.5,185.6,694,180.9,689.6,176.3z"/>
		<path d="M126.3,184.2l29.7,22.9c0,0-6.4,8.1-9.5,12.2c-9.8-7.8-29.6-23.4-29.6-23.4L126.3,184.2z"/>
		<path d="M428.9,205.1c8.9-2.1,18.5,5.2,18.7,14.4c0.8,8.5-6.6,16.4-15,16.5c-8.4,0.5-16.3-7-16-15.4
			C416.2,213.3,421.8,206.5,428.9,205.1z"/>
		<path d="M737.5,215.5c6.1-4.1,14.7-3.8,20.8,0.2c5.9,3.8,9.9,10.1,11.4,16.9c-3.8,2.6-7.7,5.1-11.6,7.5c0.2-4.5-1-9.8-5.2-12.1
			c-4.8-3-12,1.9-10.6,7.5c0.9,4.7,5.4,7.1,9.2,9.4c-4.1,2.3-8,4.7-12,7.1C733,247,728,239,728.7,230.5
			C728.9,224.4,732.3,218.6,737.5,215.5z"/>
		<g>
			<path d="M100.9,218.6l39.8,7.2l-8.3,13.7c0,0-3.3-0.8-4.9-1.1c-1.9,3.1-5.7,9.3-5.7,9.3l3.3,3.7l-8.6,13.1l-24.1-31.9
				L100.9,218.6z M106.5,231.7l8.4,8.6l3.6-4.7L106.5,231.7z"/>
		</g>
		<path d="M133.8,244.9c3-1.3,6.7,1.4,6.3,4.6c0,3.1-3.8,5.4-6.6,3.9C129.9,252,130.1,246.2,133.8,244.9z"/>
		<g>
			<path d="M764.9,253.1c7.4-2.1,15.4,1.1,20.3,6.8c5.3,6.3,7.9,15.1,5.5,23.1c-2.6,9-12.5,14.9-21.6,12.9
				c-13.9-2.9-22.2-20.2-16.1-33C755.1,258,759.8,254.6,764.9,253.1z M768.7,267.8c-4.4,1.4-6.1,7.1-3.2,10.7
				c3.1,5.1,11.8,2.7,12.8-2.9C779.3,270.5,773.7,265.3,768.7,267.8z"/>
		</g>
		<polygon points="786.9,258.5 794.6,259.4 797.3,264.7 793.1,271.6 791.9,267.8 792.9,263.2 788.6,261.4 		"/>
		<g>
			<path d="M73.2,271.3c4-6.2,11.7-10.6,19.2-9.1c6.6,1.2,12.5,6.4,13.8,13.1c2.3,8.6-2.2,16.8-5.4,24.6c-1.2,2.3-1.8,5.3-3.6,7.2
				c-4.5-1.5-8.7-4.1-13.3-5.5c-0.5,1.4-1.1,2.8-1.6,4.1c-2.7-1.1-5.4-2.3-8.2-3.4c0.6-1.4,1.2-2.8,1.8-4.2
				c-4.2-2.1-8.5-3.9-12.8-5.7C66.3,285.2,69,277.9,73.2,271.3z M84.8,276c-3.4,1.3-5.4,4.7-6.3,8c0.8,0.3,2.5,1,3.3,1.4
				c0.9-1.8,1.7-3.5,2.5-5.4c2.3,1.3,5.3,1.7,7.2,3.6c-0.4,1.8-1.3,3.4-2,5.1c1.3,0.6,2.7,1.2,4,1.8c1.4-3,2.8-6.5,1.5-9.8
				C93.5,277,88.7,274.9,84.8,276z"/>
		</g>
		<path d="M767.9,314.1c12-3.7,24.1-7.3,36.3-10.6c1.2,4.7,2.7,9.4,4,14.1c-4.8,5.9-10.2,11.3-14.6,17.5c5.7-2.6,11.9-3.9,17.9-5.6
			c1.8,4.5,2.8,9.2,4.1,13.9c-12.1,3.3-24,7.1-36.1,10.3c-1.3-4.7-2.8-9.4-4.1-14.2c4.7-5.7,9.8-11.1,14.3-17
			c-5.8,1.9-11.8,3.4-17.6,5.3C770.5,323.4,769.5,318.7,767.9,314.1z"/>
		<path d="M59.6,362.4c1.4-7.6,2.7-15.2,4.5-22.8c4.5,1,9.4,2.1,12.8,5.6c10.6,10.4,7.1,31-6.3,37.5c-6.3,3.1-14.3,2-19.7-2.3
			c-12.6-10.1-8.7-33.5,6.5-39c0.6,4.6,1.3,9.1,1.8,13.7c-2.9,1.7-4.9,5-4.1,8.4c1.1,4.6,6.4,6.2,10.6,5.8c5.3-0.4,8.2-8.3,4-11.8
			c-0.5,2.1-0.9,4.3-1.2,6.5C65.4,363.5,62.5,363,59.6,362.4z"/>
		<path d="M179.6,346.7c4-3,8.9-4.5,13.8-4.5c31.4,0,62.9,0,94.3,0c0,16.9,0,33.7,0,50.6c-20.5,0.1-41,0-61.4,0
			c-6.8-0.1-13.1,5.7-13,12.7c-0.1,16.7,0,33.4-0.1,50.1c-0.2,4.7,1.9,9.8,6.1,12.1c3.9,2.6,8.7,2,13.1,2.1
			c18.4-0.1,36.8,0.1,55.1-0.1c0.3,16.9,0.2,33.8,0,50.7c-29.7-0.1-59.5,0-89.2,0c-6.2,0.2-12.8-0.1-18.1-3.9
			c-9.1-6.4-13-18.1-13.1-28.9c0-35.3,0-70.7,0-106C166.6,369,169.1,354.8,179.6,346.7z"/>
		<path d="M304.5,342.3c39.7-0.1,79.4,0,119.2,0c-0.2,17,0.4,34-0.3,50.9c-12-0.3-24-0.1-36-0.1c0,42.4,0,84.9,0,127.3
			c-15.6,0-31.2,0-46.8,0c0-30.3,0-60.6,0-90.8c-0.1-12.2,0.3-24.4-0.2-36.6c-12,0.2-23.9,0.1-35.9,0.1
			C304.6,376.1,304.5,359.2,304.5,342.3z"/>
		<path d="M440.4,342.2c15.6,0.1,31.3-0.2,46.9,0.1c-0.2,37.7,0,75.5-0.1,113.2c-0.3,6.1,3,12.9,9.3,14.6c4.4,1,9.6,0.6,13.1-2.6
			c3.2-3.1,4.7-7.6,4.6-12c0-37.8,0-75.5,0-113.3c15.6,0,31.2,0,46.8,0c0.1,49.4,0,98.9,0,148.3c0.1,5.7-1,11.6-4.1,16.4
			c-5.6,8.8-16.2,13.3-26.4,13.3c-19.7,0-39.3,0-59,0c-9.5,0-19.4-3.7-25.5-11.2c-4-4.9-5.7-11.4-5.6-17.6
			C440.4,441.8,440.3,392,440.4,342.2z"/>
		<path d="M577.6,342.3c39.7-0.1,79.5,0,119.2,0c0,16.9,0,33.8,0,50.8c-12.1,0.1-24.3-0.1-36.4,0.1c0.1,42.4,0.1,84.8,0,127.2
			c-15.6-0.1-31.2,0-46.8,0c0-30.6,0-61.2,0-91.8c-0.2-11.9,0.3-23.8-0.2-35.6c-12,0.1-23.9,0.1-35.9,0
			C577.6,376.1,577.6,359.2,577.6,342.3z"/>
		<path d="M790.3,368.3c6.4-6.3,17.5-6.8,24.5-1.1c10.8,8.6,11.8,27.1,1.2,36.3c-2.3-4.1-4.2-8.4-6.3-12.5c2.3-2.7,3.2-6.7,1-9.7
			c-2.9-3.9-8.9-3.6-12.7-1.1c-3.9,2.7-3.7,9.9,0.9,11.8c-0.1-2.2-0.4-4.4-0.5-6.5c2.8-0.8,5.8-0.9,8.6-1.3c1,7.6,2,15.3,3,23
			c-4.9,0.6-10.2,1.1-14.6-1.5C782.5,398.7,779.7,378.4,790.3,368.3z"/>
		<path d="M38.5,398.4c12.5,0.5,25,0.9,37.6,1.4c-0.2,4.9-0.4,9.8-0.5,14.7c-6.4,4-12.9,7.7-19.3,11.7c6.2-0.1,12.4,0.4,18.7,0.5
			c0,4.8-0.3,9.6-0.4,14.5c-12.5-0.4-25-1-37.5-1.3c0.2-5,0.1-10,0.7-15c6.6-3.7,13.1-7.7,19.6-11.7c-6.4,0.6-12.8-0.2-19.3-0.3
			C38.1,408,38.3,403.2,38.5,398.4z"/>
		<path d="M788.1,447.7c12.5,0.6,24.8,2.5,37.3,3.3c-0.1,4.9-0.2,10.1-1.5,14.9c-6.4,3.6-13,6.9-19.6,10.2
			c6.2,0.9,12.6,1.1,18.8,1.9c-0.5,4.8-1,9.6-1.4,14.4c-12.5-1.2-24.9-2.5-37.4-3.6c0.3-5,0.7-10,1.5-15c6.5-3.3,13.1-6.5,19.4-10.2
			c-6.1-0.5-12.2-1.2-18.4-1.7C787.2,457.1,787.9,452.4,788.1,447.7z"/>
		<g>
			<path d="M36.4,454.5c4.1-0.4,10.1-0.9,11.5,4.1c5.7-3,12.7-4.1,18.6-1C80,464.1,82.8,484.8,72,495c-6.7,6.5-18.4,6.6-25.2,0.3
				c-9.7-8.7-10.3-25.3-1.3-34.8c-1.2-3.1-5.9-1.3-8.4-1.5C36.8,457.5,36.6,456,36.4,454.5z M56.9,471.2c-4.9,0.9-6.6,7.1-3.9,10.9
				c3.3,5.1,12.9,2.8,12.9-3.5C66.7,473.6,61.6,469.5,56.9,471.2z"/>
		</g>
		<polygon points="36.1,476.6 36.4,479.9 30.7,487.6 30,481.5 		"/>
		<path d="M787.5,506.6c8-4,18.6-1.2,23.6,6.2c8.1,11.9,2.2,30.8-11.6,35.4c-0.5-4.6-0.8-9.3-1.1-13.9c2.4-1.5,4.7-3.8,4.6-6.9
			c0.3-6.2-7.7-9.1-12.7-7.2c-3.6,1.7-6.1,8.1-2.1,10.5c0.5-2,1-4.1,1.6-6.1c2.8,0.7,5.7,1.4,8.6,2.1c-1.7,7.5-3.8,14.9-5.6,22.4
			c-5-0.8-10.1-2.8-13.3-6.8C770.6,531.6,774.9,512.8,787.5,506.6z"/>
		<path d="M44.7,512.9c4.3-1.3,10.5-1.6,12.3,3.6c6.2-0.7,12.1-4.1,18.5-3.2c6.2,1.1,10.6,6.6,12.6,12.3c2.1,6,2.8,13.1-0.7,18.8
			c-2.2,3.7-6.3,5.4-10.3,6.5c-6.8,1.9-13.6,3.8-20.4,5.6c-1.3-4.8-2.7-9.6-3.9-14.5c6.3-1.7,12.7-3.5,19-5.2c1.9-0.6,4-1,5.3-2.6
			c1.4-2.5-0.3-6.6-3.6-6.1c-7.9,1.3-15.3,4.3-23.1,5.8c-1.1-4.8-2.6-9.5-3.8-14.3c2.8-0.8,5.7-1.2,8.2-2.8c-2.9-1-5.8-0.4-8.7,0.4
			C45.6,515.8,45.1,514.3,44.7,512.9z"/>
		<g>
			<path d="M86.2,570.6c3-5.4,6.2-10.7,9.4-15.9c2.2,5.2,4.5,10.3,6.6,15.5c-2.9,3.7-5.5,7.6-8.5,11.2c3.9-1.4,7.6-3.2,11.4-4.8
				c1.8,4.6,4.2,8.9,5.6,13.7c-11.5,4.7-22.8,9.9-34.3,14.7c-2.5-5.7-5-11.4-7.4-17.1c-1.7-3.9-2.9-8.2-2.1-12.5
				c1.1-5.6,7.1-9.5,12.7-9C82.3,566.7,84.3,568.8,86.2,570.6z M80,580.2c-3.3,1.4-1.7,5.1-0.6,7.5c2.3-1,4.6-1.9,6.8-2.9
				C85.2,582.3,83.3,578.5,80,580.2z"/>
		</g>
		<path d="M761.6,568.5c1.5-4.7,3.8-9.2,5.7-13.8c11.4,5,23.1,9.4,34.4,14.8c-1.5,4.7-3.7,9.2-5.7,13.7c-3.8-1.7-7.5-3.3-11.4-4.8
			c-1.1,2.7-2.5,5.3-3.3,8.1c3.6,1.9,7.6,3.2,11.3,5c-1.9,4.6-3.9,9.1-5.7,13.7c-11.6-4.7-23.1-9.7-34.7-14.6c2-4.6,3.7-9.4,6-13.8
			c3.8,1.9,7.8,3.4,11.7,5.2c1.5-2.7,2.6-5.5,3.7-8.3C769.6,571.9,765.5,570.5,761.6,568.5z"/>
		<path d="M745.4,602.9c10.8,6.2,21.5,12.7,32.3,18.8c-4.4,8.2-9.2,16.2-14.1,24.1c-2.9-1.8-5.8-3.5-8.7-5.3
			c2.2-3.7,4.4-7.5,6.6-11.2c-1-0.6-2-1.2-3-1.8c-2.2,3.2-3.6,7-6.1,9.9c-2.9-0.9-5.3-3-8.1-4.3c1.4-3.6,3.6-6.9,5.8-10.1
			c-1-0.9-2-1.7-3-2.6c-2.7,3.8-4.7,7.9-7.2,11.8c-2.8-1.8-5.7-3.5-8.7-5.1C735.8,619,740.7,611,745.4,602.9z"/>
		<path d="M730.7,605.9c3.2-2.2,7.8,1,7,4.7c-0.4,3.3-4.7,5-7.3,3C727.8,611.9,727.9,607.4,730.7,605.9z"/>
		<path d="M98.1,619.4c7.4-4,14.7-8.1,21.8-12.5c2.8,4.2,5.3,8.7,7.6,13.2c-7.4,3.9-14.5,8.3-21.8,12.4c1.3,2.4,2.9,4.6,3.9,7.1
			c-3.4,2.4-7.1,4.2-10.7,6.1c-4.9-9.3-10.7-18.1-15.3-27.5c3.7-1.8,7-4.1,10.7-5.8C95.5,614.7,96.8,617,98.1,619.4z"/>
		<path d="M775.4,636.2l-0.9-4.4l1.7-3.5c0,0,2.5,4.7,3.8,7.1c-1.1,1.8-3.3,5.3-3.3,5.3l-7.8,0l2.3-3.1L775.4,636.2z"/>
		<path d="M167.5,722.5c4.8-5.6,10.4-10.6,15.6-15.8c5.1,5.3,10.5,10.5,15.7,15.8c-5.4,5.2-10.4,10.7-16,15.7
			C177.9,732.8,172.2,728.1,167.5,722.5z"/>
		<path d="M662.4,722.6c5.4-5.2,10.4-10.6,15.9-15.7c4.9,5.4,10.5,10.2,15.3,15.7c-4.7,5.7-10.3,10.7-15.6,15.9
			C672.9,733,667.4,728,662.4,722.6z"/>
		<path d="M347.1,774.4c0,0,4,0.9,5.9,1.5c0.6,2.4,1.8,7.1,1.8,7.1l-2.9-0.5L347.1,774.4z"/>
		<g>
			<path d="M559.7,775.6c1.5-0.4,3-0.8,4.5-1.1c1,4,2.2,9.2-2,11.9c4.6,4.9,6.3,12.4,3.8,18.7c-4.8,12.5-21.8,18-33.1,11.1
				c-7.5-4.3-10.6-14.6-7.1-22.5c3.9-9.4,15-14.4,24.8-13.2c3.7,0.3,6.8,2.4,10.3,3.6C561.3,781.2,560.6,778.3,559.7,775.6z
				 M542.7,793.7c-5.3,2-4.7,10.2,0.1,12.5c4.3,2.1,10.7-1.6,9.7-6.7C552.4,794.7,547,791.2,542.7,793.7z"/>
		</g>
		<path d="M284.2,788.3c2.2-6.6,8.5-11.4,15.4-12.2c7.2-0.9,14.4,1.8,19.8,6.4c-1.5,4.1-3.1,8.1-4.4,12.3c-2.9-2.9-6-6.4-10.5-6.2
			c-5.7-0.1-9.2,8-4.9,11.9c3.4,3.3,8.6,2.8,12.9,2.1c-1.9,4.2-3.4,8.4-5.3,12.6c-8-0.2-16.5-3.5-20.9-10.5
			C283,800,282.1,793.7,284.2,788.3z"/>
		<path d="M498.3,792.8c4.8-0.8,9.5-1.7,14.3-2.4c2.1,12,4.3,23.9,6.2,35.9c-4.8,0.8-9.5,1.7-14.3,2.4c-0.7-4.2-1.5-8.3-2.1-12.5
			c-2.9,0.4-5.8,0.9-8.7,1.5c0.8,4.2,1.6,8.4,2.1,12.7c-4.8,0.7-9.5,1.6-14.3,2.4c-1.9-12-4.4-24-6.1-36c4.8-0.6,9.5-2,14.4-2.1
			c0.5,3.8,1.2,7.7,1.7,11.5c2.9-0.4,5.7-0.8,8.6-1.3C499.7,800.8,498.8,796.8,498.3,792.8z"/>
		<path d="M365,830.5c1.1-12.1,2.8-24.3,4.2-36.4c4.7,0.7,9.4,0.9,14,1.8c3.6,6.4,6.5,13.2,10,19.7c0.6-6.1,1-12.2,2.1-18.2
			c4.6,0,9.1,1.1,13.6,1.3c-1,12.1-2.9,24.2-4.1,36.3c-4.8-0.6-9.5-1.1-14.3-1.7c-3.2-6.6-6.7-13.1-9.7-19.9
			c-0.6,6.1-1.4,12.3-2.1,18.4C374.2,831.5,369.6,830.8,365,830.5z"/>
		<path d="M438.3,799.3c10.2-0.4,20.4-1.6,30.6-1.6c0.1,3.9,0.4,7.8,0.5,11.8c-2.6,0.1-5.3,0.3-7.9,0.4c0.3,8.2,1.1,16.3,1.3,24.5
			c-4.8,0.1-9.6,0.6-14.4,0.7c-0.4-8.1-0.9-16.2-1.5-24.3c-2.7,0.1-5.4,0.3-8,0.4C438.8,807.2,438.6,803.2,438.3,799.3z"/>
	</g>
	<path d="M351.9,790.1c-1-0.2-15.4-3.6-15.4-3.6l-23,31.5l15.1,3.9l2.6-4.1l10.2,2.6l0.3,4.9l15.1,3.7
		C356.9,829,353.6,803.1,351.9,790.1z M335.5,810l5.6-10.6l0,12L335.5,810z"/>
	<path d="M350.7,787.6c0,0-1.5-4.5-2.3-6.7c-1.9-0.4-5.7-1.1-5.7-1.1l-5.5,5.3l3.4,0.8l4-2.2l3,3.6L350.7,787.6L350.7,787.6z"/>
</g>
</svg>
